<?xml version="1.0" encoding="utf-8"?>
<!-- Generator: Adobe Illustrator 16.0.0, SVG Export Plug-In . SVG Version: 6.00 Build 0)  -->
<!DOCTYPE svg PUBLIC "-//W3C//DTD SVG 1.1//EN" "http://www.w3.org/Graphics/SVG/1.1/DTD/svg11.dtd">
<svg version="1.1" xmlns="http://www.w3.org/2000/svg" xmlns:xlink="http://www.w3.org/1999/xlink" x="0px" y="0px" width="200px"
	 height="80px" viewBox="0 0 200 80" enable-background="new 0 0 200 80" xml:space="preserve">
<g id="レイヤー_1">
</g>
<g id="レイヤー_2">
	<g>
		<g>
			<path fill="#FFFFFF" d="M31.214,20.025c0.739-2.867,1.108-6.246,1.108-10.136c0-3.131-0.23-6.279-0.692-9.443
				C31.599,0.272,31.723,0.155,32,0.093C32.277,0.031,32.769,0,33.477,0c0.984,0,1.97,0.041,2.955,0.124
				c0.984,0.082,1.677,0.156,2.076,0.222c0,5.835,0.238,10.729,0.716,14.686c0.478,3.955,1.009,6.914,1.594,8.875
				c0.583,1.962,0.984,2.941,1.2,2.941c0.584,0,1.461-1.532,2.632-4.598c1.168-3.065,1.753-6.461,1.753-10.186
				c0-1.944-0.184-3.923-0.554-5.934c-0.369-2.01-0.97-4.005-1.8-5.983C44.387,0.117,44.725,0.067,45.065,0c0.615,0,1.399,0,2.354,0
				c1.229,0,2.285,0.041,3.162,0.124c0.877,0.082,1.508,0.832,1.893,2.249c0.385,1.418,0.577,3.742,0.577,6.972
				c0,4.615-0.716,9.238-2.146,13.869c-1.432,4.632-3.063,8.547-4.894,11.743c-1.832,3.197-3.101,4.796-3.81,4.796
				c-0.769,0-1.724-0.907-2.861-2.719c-1.14-1.813-2.17-3.65-3.094-5.514c-0.923-1.861-1.646-3.337-2.169-4.426
				c-1.017,2.243-2.294,5.02-3.832,8.332c-1.539,3.313-2.678,4.97-3.416,4.97c-0.831,0-2.093-1.427-3.785-4.277
				c-1.693-2.852-3.194-6.584-4.502-11.199c-1.309-4.615-1.962-9.543-1.962-14.784c0-1.681,0.062-3.296,0.185-4.846
				c0.123-1.549,0.339-3.164,0.646-4.845c0.554-0.066,1.2-0.115,1.938-0.149c0.739-0.032,1.554-0.049,2.447-0.049
				c1.631,0,2.724,0.099,3.277,0.297c0.555,0.197,0.77,0.429,0.646,0.692c-0.432,1.021-0.83,2.653-1.2,4.895
				c-0.369,2.242-0.554,4.647-0.554,7.219c0,1.912,0.146,3.955,0.438,6.131c0.292,2.176,0.639,3.898,1.038,5.168
				c0.4,1.269,0.954,1.903,1.662,1.903c0.277,0,0.492-0.066,0.646-0.198C29.322,25.002,30.476,22.893,31.214,20.025z"/>
			<path fill="#FFFFFF" d="M71.886,30.062c0.307,0,0.562,0.182,0.762,0.545c0.199,0.362,0.3,0.972,0.3,1.829
				c0,2.109-1.008,3.692-3.023,4.747c-2.017,1.054-4.332,1.582-6.947,1.582c-3.694,0-6.434-1.063-8.218-3.189
				c-1.786-2.126-2.678-4.821-2.678-8.084c0-3.857,1.137-7.393,3.408-10.606c2.272-3.214,5.031-4.82,8.277-4.82
				c2.504,0,4.521,0.692,6.052,2.076c1.53,1.385,2.466,3.198,2.806,5.439v1.137c0,2.045-1.139,3.742-3.416,5.093
				c-2.955,1.418-5.355,2.58-7.202,3.486s-2.77,1.903-2.77,2.991c0,0.659,0.292,1.17,0.877,1.533
				c0.585,0.362,1.247,0.643,1.985,0.84c0.738,0.198,1.508,0.297,2.309,0.297c1.785,0,3.369-0.461,4.755-1.385
				c1.385-0.922,2.031-1.829,1.938-2.719C71.101,30.327,71.363,30.062,71.886,30.062z M59.492,19.655
				c-1.154,1.764-1.732,3.387-1.732,4.87c0,0.956,0.277,1.434,0.831,1.434c0.215,0,0.438-0.058,0.67-0.173s1.161-0.535,2.793-1.261
				c1.631-0.725,2.962-1.4,3.993-2.027c1.03-0.626,1.547-1.599,1.547-2.917c0-0.758-0.316-1.376-0.947-1.854
				c-0.631-0.478-1.607-0.717-2.931-0.717C62.053,17.009,60.645,17.891,59.492,19.655z"/>
			<path fill="#FFFFFF" d="M74.749,4.994c0.03-0.229,0.354-0.411,0.969-0.543c0.616-0.132,1.354-0.198,2.216-0.198
				c1.017,0,1.916,0.099,2.701,0.297c0.784,0.197,1.162,0.479,1.131,0.841c-1.23,7.482-1.847,13.466-1.847,17.948
				c0,2.373,0.131,4.591,0.393,6.649c0.261,2.061,0.7,4.641,1.316,7.738c-0.37,0.133-0.739,0.248-1.108,0.347
				c-0.739,0.099-1.554,0.148-2.446,0.148c-0.832,0-1.523-0.042-2.078-0.124c-0.554-0.082-0.831-0.206-0.831-0.371
				c-0.308-2.571-0.562-5.43-0.762-8.578c-0.2-3.147-0.3-6.337-0.3-9.567c0-2.341,0.046-4.631,0.138-6.873
				C74.333,10.466,74.501,7.895,74.749,4.994z"/>
			<path fill="#FFFFFF" d="M98.985,20.569c-0.185-0.758-0.616-1.367-1.293-1.829c-0.678-0.461-1.478-0.692-2.4-0.692
				c-1.569,0-2.932,0.759-4.086,2.274c-1.154,1.517-1.73,3.89-1.73,7.12c0,2.439,0.63,4.252,1.893,5.438
				c1.262,1.188,2.738,1.78,4.432,1.78c1.2,0,2.262-0.271,3.186-0.815c0.923-0.544,1.438-1.153,1.547-1.83
				c0.107-0.675,0.284-1.014,0.53-1.014s0.5,0.306,0.762,0.915c0.262,0.61,0.393,1.311,0.393,2.102c0,1.154-0.97,2.242-2.909,3.264
				c-1.938,1.021-4.078,1.532-6.416,1.532c-2.647,0-4.863-0.808-6.648-2.423c-1.785-1.614-2.677-4.219-2.677-7.813
				c0-4.482,1.107-8.331,3.323-11.545c2.217-3.214,5.31-4.82,9.279-4.82c1.539,0,2.877,0.494,4.017,1.483
				c1.139,0.988,1.708,2.241,1.708,3.758c0,0.988-0.293,1.797-0.877,2.422c-0.585,0.627-1.139,0.94-1.662,0.94
				C99.169,20.817,99.045,20.734,98.985,20.569z"/>
			<path fill="#FFFFFF" d="M122.297,16.622c2.062,3.138,3.093,6.639,3.093,10.502c0,3.401-0.9,6.241-2.7,8.52
				c-1.801,2.279-4.518,3.418-8.148,3.418c-3.816,0-6.609-1.023-8.379-3.07c-1.771-2.048-2.655-4.688-2.655-7.926
				c0-3.897,1.132-7.563,3.394-10.997s4.809-5.151,7.641-5.151C117.65,11.917,120.235,13.485,122.297,16.622z M118.697,31.664
				c0.984-1.24,1.477-2.803,1.477-4.688c0-2.183-0.585-4.184-1.754-6.002c-1.17-1.818-2.585-2.729-4.248-2.729
				c-1.262,0-2.469,1.033-3.623,3.101c-1.154,2.066-1.731,4.191-1.731,6.374c0,1.72,0.431,3.116,1.293,4.19
				c0.861,1.076,2.215,1.612,4.062,1.612C116.204,33.523,117.711,32.904,118.697,31.664z"/>
			<path fill="#FFFFFF" d="M129.037,37.974c-0.308-1.517-0.538-3.255-0.691-5.217c-0.154-1.961-0.231-3.947-0.231-5.958
				c0-5.34,0.223-9.123,0.67-11.348c0.445-2.225,0.953-3.403,1.523-3.535c0.568-0.132,1.177-0.198,1.823-0.198
				c0.924,0,1.762,0.083,2.516,0.248s1.101,0.395,1.039,0.691c-0.031,0.231-0.077,0.52-0.138,0.865
				c-0.063,0.347-0.094,0.651-0.094,0.915c0,0.429,0.054,0.774,0.162,1.038c0.108,0.265,0.315,0.396,0.622,0.396
				c0.278,0,0.894-0.313,1.848-0.939c0.954-0.626,2.124-0.939,3.509-0.939c1.692,0,2.97,0.429,3.832,1.286
				c0.86,0.857,1.445,1.285,1.754,1.285c0.185,0,0.606-0.229,1.27-0.692c0.661-0.461,1.538-0.89,2.631-1.285s2.07-0.594,2.932-0.594
				c2.462,0,4.301,1.327,5.517,3.98s1.823,5.926,1.823,9.814c0,1.913-0.138,3.726-0.415,5.439c-0.276,1.714-0.569,2.975-0.877,3.782
				c-0.308,0.809-0.716,1.244-1.223,1.311c-0.509,0.065-1.178,0.099-2.009,0.099c-0.861,0-1.539-0.033-2.031-0.099
				c-0.277-0.099-0.554-0.215-0.831-0.346c1.046-4.187,1.569-8.043,1.569-11.57c0-2.373-0.27-4.269-0.808-5.687
				c-0.539-1.417-1.347-2.126-2.423-2.126c-1.078,0-2.117,0.554-3.117,1.661c-1,1.106-1.5,2.007-1.5,2.701
				c0,0.826,0.061,2.346,0.185,4.56c0.123,2.215,0.185,3.9,0.185,5.057c0,1.587-0.039,2.66-0.115,3.222
				c-0.077,0.563-0.185,1.091-0.323,1.587c-0.139,0.495-0.516,0.793-1.132,0.892c-0.615,0.099-1.309,0.148-2.077,0.148
				c-1.046,0-1.877-0.05-2.493-0.148c-0.369-0.132-0.724-0.281-1.061-0.446c0.43-1.652,0.769-3.42,1.015-5.304
				c0.247-1.884,0.369-3.783,0.369-5.701c0-2.378-0.246-4.312-0.738-5.799s-1.262-2.231-2.309-2.231
				c-1.077,0-2.146,0.47-3.207,1.409c-1.063,0.94-1.594,1.789-1.594,2.547c-0.093,0.923-0.154,1.656-0.185,2.2
				s-0.046,1.344-0.046,2.398c0,1.945,0.115,3.782,0.346,5.513s0.624,3.437,1.178,5.118c-0.432,0.099-0.848,0.197-1.246,0.296
				c-0.924,0.099-1.832,0.148-2.724,0.148c-0.802,0-1.439-0.033-1.917-0.099C129.322,38.253,129.067,38.139,129.037,37.974z"/>
			<path fill="#FFFFFF" d="M182.358,30.062c0.308,0,0.562,0.182,0.762,0.545c0.199,0.362,0.301,0.972,0.301,1.829
				c0,2.109-1.01,3.692-3.024,4.747c-2.017,1.054-4.332,1.582-6.948,1.582c-3.693,0-6.433-1.063-8.217-3.189
				c-1.785-2.126-2.678-4.821-2.678-8.084c0-3.857,1.136-7.393,3.408-10.606c2.271-3.214,5.031-4.82,8.278-4.82
				c2.503,0,4.52,0.692,6.05,2.076c1.531,1.385,2.466,3.198,2.808,5.439v1.137c0,2.045-1.14,3.742-3.417,5.093
				c-2.955,1.418-5.355,2.58-7.202,3.486s-2.77,1.903-2.77,2.991c0,0.659,0.292,1.17,0.878,1.533
				c0.584,0.362,1.245,0.643,1.984,0.84c0.739,0.198,1.508,0.297,2.308,0.297c1.785,0,3.37-0.461,4.756-1.385
				c1.385-0.922,2.031-1.829,1.939-2.719C181.574,30.327,181.834,30.062,182.358,30.062z M169.962,19.655
				c-1.154,1.764-1.731,3.387-1.731,4.87c0,0.956,0.277,1.434,0.832,1.434c0.215,0,0.438-0.058,0.669-0.173s1.161-0.535,2.793-1.261
				c1.631-0.725,2.962-1.4,3.992-2.027c1.031-0.626,1.547-1.599,1.547-2.917c0-0.758-0.315-1.376-0.945-1.854
				c-0.632-0.478-1.609-0.717-2.933-0.717C172.525,17.009,171.117,17.891,169.962,19.655z"/>
		</g>
		<g>
			<path fill="#FFFFFF" d="M9.612,70.415c-0.449-0.174-1.007-0.262-1.672-0.262c-1.176,0-2.24,0.283-3.192,0.848
				S3.32,72.405,3.32,73.516c0,1.014,0.12,2.002,0.36,2.965c0.239,0.965,0.468,1.869,0.685,2.717
				c0.015,0.082-0.074,0.145-0.267,0.188c-0.194,0.041-0.445,0.061-0.755,0.061c-0.201,0-0.399,0-0.592,0c-0.194,0-0.384,0-0.569,0
				c-0.124,0-0.333,0-0.626,0c-0.295,0-0.512,0-0.65,0c-0.201,0-0.384-0.012-0.546-0.037c-0.162-0.023-0.243-0.104-0.243-0.236
				c0-0.811-0.021-2.303-0.059-4.473C0.019,72.53,0,70.922,0,69.877c0-1.773,0.062-3.394,0.186-4.86
				c0.123-1.467,0.278-2.668,0.464-3.605c0.187-0.936,0.395-1.404,0.627-1.404c0.154,0,0.418,0.025,0.789,0.075
				c0.372,0.05,0.635,0.075,0.79,0.075c0.046,0,0.298-0.039,0.754-0.115c0.457-0.077,0.785-0.115,0.987-0.115
				c0.107,0,0.197,0.013,0.267,0.037c0.069,0.025,0.089,0.088,0.058,0.187c-0.34,1.029-0.611,1.966-0.812,2.813
				c-0.202,0.847-0.372,1.776-0.512,2.788c-0.03,0.365,0.065,0.713,0.291,1.045c0.224,0.331,0.468,0.448,0.731,0.349
				c0.51-0.199,1.009-0.356,1.497-0.472c0.487-0.117,0.979-0.176,1.474-0.176c0.418,0,0.852,0.051,1.301,0.15
				c0.231,0.049,0.444-0.037,0.639-0.262c0.192-0.225,0.259-0.473,0.197-0.738c-0.449-1.865-1.107-3.705-1.974-5.521
				c-0.031-0.083-0.027-0.137,0.012-0.161c0.038-0.025,0.119-0.038,0.243-0.038c0.154,0,0.449,0.038,0.883,0.115
				c0.433,0.076,0.742,0.115,0.929,0.115c0.062,0,0.286-0.021,0.673-0.063c0.387-0.041,0.674-0.063,0.858-0.063
				c0.232,0,0.526,0.282,0.883,0.846c0.355,0.564,0.681,1.938,0.975,4.119c0.294,2.183,0.441,4.634,0.441,7.354
				c0,1.18-0.039,2.432-0.116,3.76s-0.139,2.215-0.186,2.664c-0.046,0.447-0.317,0.67-0.813,0.67c-0.248,0-0.487,0-0.72,0
				s-0.457,0-0.673,0c-0.202,0-0.398,0-0.593,0c-0.193,0-0.391,0-0.592,0c-0.325,0-0.577-0.016-0.755-0.049s-0.259-0.1-0.243-0.199
				c0.526-1.859,0.878-3.363,1.057-4.51c0.178-1.146,0.267-2.334,0.267-3.563C10.285,70.827,10.06,70.588,9.612,70.415z"/>
			<path fill="#FFFFFF" d="M24.075,78.135c0.047,0.199,0.07,0.348,0.07,0.447c0,0.199-0.081,0.348-0.244,0.447
				s-0.476,0.15-0.94,0.15h-5.293c-0.743,0-1.412-0.207-2.008-0.623c-0.597-0.414-0.895-0.969-0.895-1.666
				c0-1.508,0.584-2.697,1.751-3.566c1.168-0.871,2.558-1.539,4.17-2.002c0.093-0.299,0.139-0.572,0.139-0.82
				c0-0.531-0.18-0.93-0.539-1.195c-0.359-0.264-0.807-0.396-1.343-0.396c-0.55,0-1.032,0.137-1.445,0.41s-0.619,0.643-0.619,1.105
				c0,0.414-0.132,0.623-0.396,0.623c-0.324,0-0.685-0.24-1.079-0.723c-0.395-0.48-0.538-0.877-0.43-1.193
				c0.339-0.977,0.854-1.699,1.548-2.162c0.692-0.464,1.478-0.696,2.355-0.696c1.278,0,2.44,0.422,3.487,1.267
				c1.047,0.846,1.571,1.842,1.571,2.984c0,0.348-0.012,1.074-0.035,2.176c-0.023,1.104-0.035,1.953-0.035,2.549
				c0,0.465,0.008,0.891,0.023,1.281c0.015,0.389,0.047,0.775,0.093,1.156C23.998,77.788,24.029,77.936,24.075,78.135z
				 M20.825,73.983c0-0.166-0.116-0.25-0.349-0.25c-0.495,0-1.087,0.246-1.775,0.734c-0.688,0.49-1.033,0.99-1.033,1.504
				c0,0.465,0.225,0.834,0.673,1.107c0.449,0.273,0.937,0.41,1.463,0.41c0.294,0,0.537-0.055,0.731-0.162
				c0.193-0.107,0.29-0.262,0.29-0.459V73.983z"/>
			<path fill="#FFFFFF" d="M25.445,79.081c-0.155-0.664-0.264-1.363-0.326-2.102c-0.062-0.736-0.093-1.529-0.093-2.375
				c0-1.441,0.078-2.848,0.232-4.215s0.306-2.428,0.453-3.182c0.146-0.755,0.363-1.165,0.65-1.231c0.285-0.066,0.592-0.1,0.916-0.1
				c0.465,0,0.887,0.041,1.266,0.125c0.379,0.082,0.554,0.197,0.522,0.348c-0.031,0.232-0.047,0.455-0.047,0.671
				c0,0.316,0.027,0.572,0.081,0.771c0.055,0.199,0.159,0.297,0.314,0.297c0.123,0,0.293-0.123,0.511-0.371
				c0.216-0.248,0.529-0.48,0.939-0.697c0.41-0.216,0.832-0.323,1.266-0.323c0.867,0,1.587,0.442,2.159,1.323
				c0.572,0.883,0.858,2.396,0.858,4.545c0,0.881-0.054,1.855-0.162,2.92s-0.229,1.951-0.359,2.658
				c-0.132,0.707-0.337,1.076-0.615,1.111c-0.279,0.033-0.589,0.049-0.929,0.049c-0.434,0-0.844-0.025-1.23-0.074
				c-0.388-0.049-0.573-0.117-0.558-0.201c0.232-0.916,0.438-1.977,0.615-3.186c0.178-1.207,0.267-2.254,0.267-3.137
				c0-1.033-0.104-1.836-0.313-2.412c-0.209-0.574-0.554-0.861-1.033-0.861c-0.713,0-1.339,0.283-1.881,0.846
				s-0.813,0.945-0.813,1.145c-0.046,0.463-0.078,0.832-0.093,1.105c-0.016,0.273-0.023,0.676-0.023,1.205
				c0,0.979,0.059,1.902,0.174,2.773c0.116,0.871,0.314,1.729,0.593,2.574c-0.155,0.066-0.311,0.125-0.465,0.174
				c-0.278,0.033-0.665,0.049-1.16,0.049c-0.48,0-0.883-0.016-1.208-0.049S25.459,79.163,25.445,79.081z"/>
			<path fill="#FFFFFF" d="M45.828,79.206c-0.093,0-0.24,0-0.441,0h-3.714c-1.827,0-3.224-0.234-4.19-0.699
				c-0.968-0.465-1.451-1.594-1.451-3.387c0-0.781,0.162-1.961,0.487-3.539c0.325-1.576,0.913-2.873,1.764-3.885
				c0.852-1.015,1.788-1.521,2.81-1.521c0.511,0,1.014,0.125,1.51,0.373c0.17,0.082,0.305,0.029,0.406-0.162
				c0.101-0.189,0.15-0.402,0.15-0.633c0-0.498-0.069-1.02-0.209-1.568c-0.139-0.547-0.286-1.119-0.441-1.715
				c-0.03-0.183,0.077-0.32,0.325-0.411c0.247-0.09,0.758-0.136,1.532-0.136c0.154,0,0.472,0.008,0.952,0.024
				c0.479,0.017,0.72-0.002,0.72-0.057c0,1.078,0.093,2.729,0.278,4.95c0.186,2.224,0.279,3.897,0.279,5.024
				c0,1.229-0.032,2.459-0.094,3.695c-0.062,1.234-0.154,2.375-0.278,3.42C46.222,79.129,46.09,79.206,45.828,79.206z
				 M42.659,68.936c-0.256-0.15-0.568-0.225-0.94-0.225c-0.557,0-1.061,0.299-1.509,0.898c-0.449,0.598-0.759,1.418-0.929,2.455
				c-0.171,1.039-0.255,1.75-0.255,2.133c0,0.982,0.2,1.68,0.603,2.096c0.403,0.416,0.906,0.623,1.51,0.623
				c0.495,0,0.963-0.121,1.404-0.361c0.441-0.242,0.688-0.549,0.743-0.922c0.054-0.375,0.093-0.678,0.116-0.912
				c0.022-0.232,0.034-0.656,0.034-1.271c-0.016-0.449-0.034-1.043-0.058-1.783s-0.035-1.482-0.035-2.232
				C43.142,69.252,42.914,69.086,42.659,68.936z"/>
			<path fill="#FFFFFF" d="M48.498,70.799c0.975-0.066,1.811-0.1,2.507-0.1c0.418,0,0.952,0.018,1.603,0.051
				c0.649,0.033,1.113,0.049,1.393,0.049c0.062,0,0.116,0.1,0.162,0.299c0.047,0.199,0.07,0.414,0.07,0.646
				c0,0.498-0.078,0.746-0.232,0.746h-1.463c-0.82,0-1.509,0.021-2.066,0.063c-0.557,0.043-1.168,0.141-1.834,0.291
				c-0.108,0.018-0.193-0.102-0.255-0.357c-0.063-0.256-0.093-0.537-0.093-0.844C48.289,71.081,48.358,70.799,48.498,70.799z"/>
			<path fill="#FFFFFF" d="M66.792,62.668c0,0.497-0.279,1.053-0.836,1.667c-0.558,0.613-1.037,0.92-1.439,0.92
				c-0.248,0-0.414-0.182-0.499-0.547s-0.43-0.701-1.033-1.008s-1.23-0.46-1.881-0.46c-0.572,0-1.061,0.128-1.462,0.385
				c-0.403,0.258-0.604,0.634-0.604,1.132c0,1.045,1.084,2.051,3.251,3.022c2.166,0.969,3.652,1.719,4.457,2.25
				c0.805,0.529,1.207,1.725,1.207,3.58c0,2.055-0.677,3.635-2.031,4.736S62.96,80,61.103,80c-1.702,0-3.169-0.461-4.399-1.381
				s-1.846-2.191-1.846-3.816c0-0.58,0.193-1.313,0.581-2.201c0.387-0.887,0.703-1.33,0.951-1.33c0.108,0,0.232,0.457,0.371,1.367
				c0.14,0.912,0.654,1.762,1.545,2.549c0.889,0.789,1.876,1.182,2.96,1.182c0.82,0,1.521-0.219,2.101-0.658s0.87-1.008,0.87-1.705
				c0-1.158-1.049-2.232-3.146-3.219c-2.098-0.986-3.567-1.785-4.411-2.4c-0.844-0.611-1.265-1.987-1.265-4.128
				c0-1.342,0.604-2.428,1.811-3.257c1.207-0.828,2.615-1.243,4.226-1.243c1.021,0,2.004,0.208,2.948,0.622
				c0.943,0.414,1.694,1.011,2.252,1.79C66.745,62.321,66.792,62.486,66.792,62.668z"/>
			<path fill="#FFFFFF" d="M78.33,75.102c0.154,0,0.282,0.092,0.383,0.273s0.151,0.488,0.151,0.92c0,1.061-0.508,1.855-1.521,2.387
				s-2.179,0.797-3.493,0.797c-1.857,0-3.235-0.535-4.133-1.605c-0.898-1.068-1.347-2.424-1.347-4.064
				c0-1.939,0.571-3.719,1.714-5.334c1.143-1.616,2.53-2.425,4.163-2.425c1.26,0,2.273,0.35,3.043,1.044
				c0.771,0.697,1.24,1.609,1.411,2.736v0.572c0,1.027-0.572,1.881-1.718,2.561c-1.486,0.713-2.693,1.297-3.622,1.754
				c-0.929,0.455-1.393,0.955-1.393,1.502c0,0.332,0.146,0.59,0.441,0.773c0.294,0.182,0.627,0.322,0.998,0.422
				s0.758,0.148,1.16,0.148c0.897,0,1.695-0.232,2.392-0.695c0.696-0.465,1.021-0.922,0.976-1.369
				C77.935,75.235,78.066,75.102,78.33,75.102z M72.096,69.868c-0.581,0.887-0.871,1.703-0.871,2.449c0,0.48,0.14,0.721,0.418,0.721
				c0.108,0,0.221-0.029,0.337-0.086c0.116-0.059,0.584-0.27,1.404-0.635s1.489-0.705,2.009-1.02
				c0.519-0.314,0.777-0.805,0.777-1.467c0-0.381-0.159-0.693-0.476-0.932c-0.318-0.24-0.81-0.361-1.475-0.361
				C73.384,68.538,72.676,68.981,72.096,69.868z"/>
			<path fill="#FFFFFF" d="M79.768,62.495c0.016-0.116,0.178-0.207,0.488-0.273c0.309-0.066,0.681-0.1,1.113-0.1
				c0.512,0,0.964,0.05,1.358,0.148c0.396,0.101,0.584,0.241,0.569,0.424c-0.619,3.763-0.929,6.771-0.929,9.025
				c0,1.193,0.065,2.309,0.197,3.346c0.131,1.035,0.352,2.332,0.661,3.891c-0.186,0.066-0.371,0.125-0.557,0.174
				c-0.372,0.051-0.782,0.076-1.23,0.076c-0.418,0-0.767-0.023-1.045-0.063c-0.278-0.043-0.418-0.104-0.418-0.188
				c-0.155-1.293-0.282-2.73-0.383-4.314c-0.101-1.582-0.151-3.186-0.151-4.811c0-1.178,0.023-2.328,0.069-3.456
				C79.559,65.246,79.644,63.954,79.768,62.495z"/>
			<path fill="#FFFFFF" d="M93.814,75.102c0.154,0,0.282,0.092,0.383,0.273s0.151,0.488,0.151,0.92c0,1.061-0.508,1.855-1.521,2.387
				c-1.013,0.531-2.179,0.797-3.493,0.797c-1.857,0-3.235-0.535-4.133-1.605c-0.897-1.068-1.347-2.424-1.347-4.064
				c0-1.939,0.571-3.719,1.714-5.334c1.143-1.616,2.53-2.425,4.163-2.425c1.26,0,2.273,0.35,3.043,1.044
				c0.771,0.697,1.24,1.609,1.411,2.736v0.572c0,1.027-0.572,1.881-1.718,2.561c-1.486,0.713-2.693,1.297-3.622,1.754
				c-0.929,0.455-1.393,0.955-1.393,1.502c0,0.332,0.147,0.59,0.441,0.773c0.294,0.182,0.627,0.322,0.998,0.422
				s0.758,0.148,1.16,0.148c0.898,0,1.695-0.232,2.392-0.695c0.697-0.465,1.021-0.922,0.976-1.369
				C93.419,75.235,93.55,75.102,93.814,75.102z M87.581,69.868c-0.581,0.887-0.871,1.703-0.871,2.449c0,0.48,0.14,0.721,0.418,0.721
				c0.108,0,0.221-0.029,0.337-0.086c0.116-0.059,0.584-0.27,1.404-0.635s1.489-0.705,2.009-1.02
				c0.519-0.314,0.777-0.805,0.777-1.467c0-0.381-0.159-0.693-0.476-0.932c-0.317-0.24-0.81-0.361-1.475-0.361
				C88.869,68.538,88.161,68.981,87.581,69.868z"/>
			<path fill="#FFFFFF" d="M102.868,70.327c-0.093-0.381-0.31-0.688-0.649-0.918c-0.342-0.232-0.743-0.35-1.208-0.35
				c-0.789,0-1.474,0.383-2.055,1.145c-0.58,0.762-0.87,1.957-0.87,3.58c0,1.227,0.317,2.139,0.952,2.734
				c0.634,0.598,1.377,0.896,2.229,0.896c0.604,0,1.138-0.137,1.602-0.41s0.724-0.58,0.778-0.92c0.054-0.34,0.143-0.51,0.267-0.51
				c0.123,0,0.251,0.152,0.383,0.459s0.197,0.66,0.197,1.057c0,0.58-0.487,1.129-1.463,1.641c-0.975,0.514-2.051,0.771-3.227,0.771
				c-1.331,0-2.445-0.406-3.343-1.219s-1.347-2.121-1.347-3.928c0-2.256,0.557-4.189,1.672-5.807
				c1.114-1.616,2.67-2.423,4.666-2.423c0.773,0,1.447,0.248,2.02,0.744c0.572,0.497,0.858,1.128,0.858,1.89
				c0,0.498-0.146,0.904-0.44,1.219c-0.294,0.314-0.573,0.473-0.836,0.473C102.96,70.452,102.899,70.411,102.868,70.327z"/>
			<path fill="#FFFFFF" d="M106.118,79.204c-0.279-0.598-0.484-1.316-0.615-2.156s-0.198-1.791-0.198-2.854
				c0-0.73,0.023-1.396,0.07-1.994c0.047-0.6,0.116-1.289,0.21-2.068c0.03-0.217-0.032-0.428-0.187-0.637
				c-0.155-0.207-0.348-0.311-0.581-0.311h-1.067c-0.077,0-0.116-0.117-0.116-0.348c0-0.398,0.09-0.883,0.267-1.455
				c0.179-0.573,0.345-0.858,0.5-0.858c0.17,0,0.325,0,0.464,0c0.14,0,0.271,0,0.395,0c0.31,0,0.507-0.045,0.592-0.135
				c0.085-0.092,0.128-0.316,0.128-0.68c0-0.213,0-0.387,0-0.518s0.013-0.316,0.035-0.555c0.023-0.238,0.391-0.527,1.103-0.865
				c0.712-0.337,1.27-0.506,1.672-0.506c0.247,0,0.371,0.084,0.371,0.249c0,0.382-0.042,0.779-0.128,1.194
				c-0.085,0.414-0.15,0.754-0.197,1.02c-0.031,0.166-0.004,0.34,0.081,0.521c0.085,0.184,0.206,0.273,0.361,0.273h1.137
				c0.2,0,0.302,0.217,0.302,0.647c0,0.396-0.069,0.832-0.21,1.305c-0.139,0.473-0.262,0.709-0.37,0.709h-1.301
				c-0.371,0-0.606,0.273-0.708,0.822c-0.101,0.549-0.15,1.221-0.15,2.02c0,1.295,0.147,2.521,0.441,3.676
				c0.293,1.156,0.649,1.934,1.067,2.33c-0.155,0.199-0.302,0.4-0.441,0.6c-0.866,0.498-1.68,0.746-2.438,0.746
				C106.327,79.377,106.164,79.321,106.118,79.204z"/>
			<path fill="#FFFFFF" d="M121.045,75.102c0.154,0,0.282,0.092,0.384,0.273c0.099,0.182,0.149,0.488,0.149,0.92
				c0,1.061-0.507,1.855-1.52,2.387c-1.015,0.531-2.179,0.797-3.495,0.797c-1.857,0-3.234-0.535-4.132-1.605
				c-0.898-1.068-1.346-2.424-1.346-4.064c0-1.939,0.57-3.719,1.713-5.334c1.143-1.616,2.53-2.425,4.163-2.425
				c1.259,0,2.273,0.35,3.043,1.044c0.771,0.697,1.24,1.609,1.411,2.736v0.572c0,1.027-0.572,1.881-1.718,2.561
				c-1.486,0.713-2.693,1.297-3.622,1.754c-0.929,0.455-1.394,0.955-1.394,1.502c0,0.332,0.148,0.59,0.442,0.773
				c0.294,0.182,0.627,0.322,0.998,0.422s0.759,0.148,1.161,0.148c0.896,0,1.694-0.232,2.391-0.695
				c0.696-0.465,1.021-0.922,0.976-1.369C120.651,75.235,120.782,75.102,121.045,75.102z M114.812,69.868
				c-0.581,0.887-0.87,1.703-0.87,2.449c0,0.48,0.139,0.721,0.417,0.721c0.108,0,0.221-0.029,0.337-0.086
				c0.116-0.059,0.583-0.27,1.404-0.635c0.819-0.365,1.489-0.705,2.009-1.02c0.519-0.314,0.776-0.805,0.776-1.467
				c0-0.381-0.158-0.693-0.475-0.932c-0.317-0.24-0.81-0.361-1.475-0.361C116.1,68.538,115.392,68.981,114.812,69.868z"/>
			<path fill="#FFFFFF" d="M132.212,79.206c-0.093,0-0.24,0-0.441,0h-3.714c-1.827,0-3.224-0.234-4.191-0.699
				s-1.451-1.594-1.451-3.387c0-0.781,0.162-1.961,0.487-3.539c0.326-1.576,0.913-2.873,1.766-3.885
				c0.85-1.015,1.786-1.521,2.809-1.521c0.511,0,1.014,0.125,1.509,0.373c0.171,0.082,0.305,0.029,0.406-0.162
				c0.101-0.189,0.151-0.402,0.151-0.633c0-0.498-0.07-1.02-0.209-1.568c-0.14-0.547-0.287-1.119-0.44-1.715
				c-0.032-0.183,0.076-0.32,0.324-0.411c0.248-0.09,0.759-0.136,1.533-0.136c0.153,0,0.471,0.008,0.951,0.024
				c0.479,0.017,0.72-0.002,0.72-0.057c0,1.078,0.092,2.729,0.278,4.95c0.186,2.224,0.278,3.897,0.278,5.024
				c0,1.229-0.031,2.459-0.093,3.695c-0.063,1.234-0.155,2.375-0.278,3.42C132.607,79.129,132.476,79.206,132.212,79.206z
				 M129.042,68.936c-0.255-0.15-0.568-0.225-0.939-0.225c-0.557,0-1.061,0.299-1.509,0.898c-0.45,0.598-0.76,1.418-0.929,2.455
				c-0.171,1.039-0.256,1.75-0.256,2.133c0,0.982,0.201,1.68,0.604,2.096c0.403,0.416,0.905,0.623,1.51,0.623
				c0.494,0,0.963-0.121,1.404-0.361c0.44-0.242,0.688-0.549,0.742-0.922c0.055-0.375,0.093-0.678,0.117-0.912
				c0.023-0.232,0.034-0.656,0.034-1.271c-0.016-0.449-0.034-1.043-0.059-1.783c-0.023-0.74-0.034-1.482-0.034-2.232
				C129.526,69.252,129.298,69.086,129.042,68.936z"/>
			<path fill="#FFFFFF" d="M148.37,65.056c-0.154-0.631-0.461-1.132-0.917-1.505s-0.972-0.56-1.544-0.56
				c-0.944,0-1.76,0.485-2.449,1.455c-0.688,0.971-1.032,2.434-1.032,4.39c0,1.988,0.49,3.555,1.475,4.699
				c0.981,1.143,2.092,1.715,3.33,1.715c0.836,0,1.563-0.27,2.183-0.807c0.618-0.539,0.987-1.17,1.103-1.891
				c0.116-0.721,0.282-1.082,0.5-1.082c0.217,0,0.433,0.258,0.649,0.771s0.325,1.102,0.325,1.764c0,1.809-0.542,3.242-1.625,4.303
				c-1.084,1.061-2.399,1.592-3.947,1.592c-2.043,0-3.838-0.936-5.386-2.811c-1.547-1.873-2.321-4.592-2.321-8.156
				c0-2.651,0.688-4.906,2.066-6.763c1.377-1.856,3.319-2.784,5.826-2.784c1.1,0,2.071,0.269,2.914,0.808
				c0.844,0.538,1.265,1.297,1.265,2.275c0,0.812-0.243,1.483-0.73,2.014c-0.487,0.531-0.94,0.797-1.358,0.797
				C148.509,65.281,148.402,65.205,148.37,65.056z"/>
			<path fill="#FFFFFF" d="M162.346,68.342c1.037,1.578,1.555,3.338,1.555,5.281c0,1.711-0.452,3.139-1.357,4.285
				c-0.905,1.145-2.271,1.719-4.097,1.719c-1.92,0-3.325-0.516-4.215-1.545s-1.334-2.357-1.334-3.986
				c0-1.959,0.568-3.803,1.706-5.529c1.137-1.728,2.418-2.591,3.843-2.591C160.009,65.976,161.309,66.765,162.346,68.342z
				 M160.535,75.907c0.496-0.623,0.744-1.41,0.744-2.357c0-1.098-0.295-2.104-0.883-3.02c-0.589-0.914-1.3-1.371-2.136-1.371
				c-0.635,0-1.241,0.52-1.823,1.561c-0.579,1.039-0.87,2.107-0.87,3.203c0,0.867,0.217,1.568,0.65,2.109s1.113,0.811,2.043,0.811
				C159.282,76.842,160.041,76.53,160.535,75.907z"/>
			<path fill="#FFFFFF" d="M165.898,78.981c-0.264-1.658-0.396-3.582-0.396-5.77c0-1.359,0.047-2.338,0.14-2.934
				s0.14-0.92,0.14-0.971c0-0.33-0.179-0.463-0.534-0.396c-0.17,0.033-0.36,0.084-0.568,0.148c-0.209,0.066-0.392,0.125-0.546,0.174
				c-0.124,0.035-0.225-0.1-0.303-0.396c-0.076-0.299-0.115-0.646-0.115-1.045c0-0.381,0.034-0.701,0.104-0.958
				c0.069-0.256,0.174-0.385,0.313-0.385h0.418c0.448,0,0.815-0.066,1.103-0.199c0.286-0.133,0.43-0.363,0.43-0.695
				c0-1.427,0.387-2.434,1.161-3.022c0.773-0.588,1.701-0.883,2.785-0.883c0.465,0,0.89,0.042,1.277,0.124
				c0.062,0,0.092,0.108,0.092,0.324c0,0.314-0.061,0.745-0.186,1.292c-0.092,0.266-0.185,0.522-0.278,0.771
				c-0.324-0.149-0.643-0.225-0.951-0.225c-0.371,0-0.673,0.101-0.906,0.299c-0.231,0.2-0.348,0.481-0.348,0.847
				c0,0.199,0.03,0.393,0.093,0.584c0.063,0.189,0.135,0.322,0.221,0.398c0.085,0.074,0.221,0.127,0.406,0.16
				c0.187,0.033,0.355,0.051,0.511,0.051c0.217,0,0.395,0,0.534,0s0.259,0.164,0.359,0.492c0.102,0.329,0.151,0.716,0.151,1.159
				c0,0.344-0.043,0.633-0.128,0.863c-0.085,0.229-0.213,0.344-0.383,0.344c-0.202,0-0.395-0.023-0.581-0.074
				c-0.186-0.049-0.363-0.1-0.534-0.148c-0.371-0.066-0.611,0.008-0.719,0.223c-0.108,0.217-0.163,0.516-0.163,0.896
				c0,1.789,0.055,3.477,0.163,5.059c0.107,1.584,0.255,2.848,0.44,3.793c0.015,0.1-0.174,0.182-0.568,0.248
				c-0.396,0.066-0.84,0.1-1.336,0.1c-0.37,0-0.677-0.016-0.917-0.049C166.041,79.147,165.913,79.081,165.898,78.981z"/>
			<path fill="#FFFFFF" d="M172.792,78.981c-0.264-1.658-0.395-3.582-0.395-5.77c0-1.359,0.047-2.338,0.139-2.934
				c0.094-0.596,0.14-0.92,0.14-0.971c0-0.33-0.178-0.463-0.534-0.396c-0.171,0.033-0.36,0.084-0.568,0.148
				c-0.209,0.066-0.391,0.125-0.546,0.174c-0.123,0.035-0.225-0.1-0.302-0.396c-0.078-0.299-0.115-0.646-0.115-1.045
				c0-0.381,0.034-0.701,0.104-0.958c0.069-0.256,0.174-0.385,0.313-0.385h0.418c0.448,0,0.816-0.066,1.104-0.199
				c0.285-0.133,0.43-0.363,0.43-0.695c0-1.427,0.386-2.434,1.16-3.022c0.773-0.588,1.702-0.883,2.785-0.883
				c0.465,0,0.89,0.042,1.277,0.124c0.063,0,0.093,0.108,0.093,0.324c0,0.314-0.062,0.745-0.186,1.292
				c-0.093,0.266-0.187,0.522-0.278,0.771c-0.325-0.149-0.643-0.225-0.952-0.225c-0.371,0-0.673,0.101-0.905,0.299
				c-0.232,0.2-0.349,0.481-0.349,0.847c0,0.199,0.031,0.393,0.093,0.584c0.062,0.189,0.135,0.322,0.221,0.398
				c0.085,0.074,0.221,0.127,0.406,0.16s0.356,0.051,0.511,0.051c0.217,0,0.395,0,0.534,0c0.139,0,0.259,0.164,0.36,0.492
				c0.1,0.329,0.149,0.716,0.149,1.159c0,0.344-0.041,0.633-0.127,0.863c-0.085,0.229-0.212,0.344-0.383,0.344
				c-0.201,0-0.395-0.023-0.58-0.074c-0.186-0.049-0.364-0.1-0.534-0.148c-0.372-0.066-0.612,0.008-0.721,0.223
				c-0.108,0.217-0.162,0.516-0.162,0.896c0,1.789,0.054,3.477,0.162,5.059c0.108,1.584,0.257,2.848,0.442,3.793
				c0.015,0.1-0.175,0.182-0.569,0.248s-0.84,0.1-1.335,0.1c-0.372,0-0.677-0.016-0.917-0.049S172.807,79.081,172.792,78.981z"/>
			<path fill="#FFFFFF" d="M188.556,75.102c0.153,0,0.281,0.092,0.383,0.273c0.1,0.182,0.15,0.488,0.15,0.92
				c0,1.061-0.507,1.855-1.521,2.387s-2.179,0.797-3.494,0.797c-1.857,0-3.235-0.535-4.132-1.605
				c-0.898-1.068-1.347-2.424-1.347-4.064c0-1.939,0.571-3.719,1.714-5.334c1.143-1.616,2.529-2.425,4.163-2.425
				c1.259,0,2.272,0.35,3.043,1.044c0.77,0.697,1.24,1.609,1.411,2.736v0.572c0,1.027-0.573,1.881-1.718,2.561
				c-1.486,0.713-2.693,1.297-3.623,1.754c-0.928,0.455-1.393,0.955-1.393,1.502c0,0.332,0.147,0.59,0.441,0.773
				c0.295,0.182,0.627,0.322,0.998,0.422c0.372,0.1,0.759,0.148,1.161,0.148c0.897,0,1.695-0.232,2.392-0.695
				c0.697-0.465,1.021-0.922,0.975-1.369C188.161,75.235,188.292,75.102,188.556,75.102z M182.322,69.868
				c-0.58,0.887-0.87,1.703-0.87,2.449c0,0.48,0.139,0.721,0.418,0.721c0.108,0,0.221-0.029,0.336-0.086
				c0.116-0.059,0.584-0.27,1.404-0.635c0.821-0.365,1.489-0.705,2.01-1.02c0.518-0.314,0.776-0.805,0.776-1.467
				c0-0.381-0.158-0.693-0.476-0.932c-0.317-0.24-0.809-0.361-1.475-0.361C183.61,68.538,182.903,68.981,182.322,69.868z"/>
			<path fill="#FFFFFF" d="M199.465,75.102c0.155,0,0.283,0.092,0.384,0.273S200,75.864,200,76.295c0,1.061-0.508,1.855-1.521,2.387
				s-2.179,0.797-3.493,0.797c-1.857,0-3.234-0.535-4.133-1.605c-0.898-1.068-1.347-2.424-1.347-4.064
				c0-1.939,0.571-3.719,1.714-5.334c1.143-1.616,2.531-2.425,4.162-2.425c1.261,0,2.274,0.35,3.044,1.044
				c0.771,0.697,1.24,1.609,1.411,2.736v0.572c0,1.027-0.572,1.881-1.718,2.561c-1.486,0.713-2.693,1.297-3.621,1.754
				c-0.93,0.455-1.394,0.955-1.394,1.502c0,0.332,0.146,0.59,0.441,0.773c0.293,0.182,0.627,0.322,0.998,0.422
				s0.758,0.148,1.16,0.148c0.898,0,1.695-0.232,2.392-0.695c0.696-0.465,1.021-0.922,0.976-1.369
				C199.072,75.235,199.203,75.102,199.465,75.102z M193.233,69.868c-0.581,0.887-0.871,1.703-0.871,2.449
				c0,0.48,0.14,0.721,0.418,0.721c0.108,0,0.221-0.029,0.337-0.086c0.116-0.059,0.584-0.27,1.405-0.635
				c0.819-0.365,1.489-0.705,2.007-1.02c0.52-0.314,0.778-0.805,0.778-1.467c0-0.381-0.159-0.693-0.476-0.932
				c-0.318-0.24-0.81-0.361-1.474-0.361C194.522,68.538,193.812,68.981,193.233,69.868z"/>
		</g>
	</g>
</g>
</svg>
