<?xml version="1.0" encoding="utf-8"?>
<!-- Generator: Adobe Illustrator 24.1.0, SVG Export Plug-In . SVG Version: 6.00 Build 0)  -->
<svg version="1.1" id="レイヤー_1" xmlns="http://www.w3.org/2000/svg" xmlns:xlink="http://www.w3.org/1999/xlink" x="0px"
	 y="0px" width="50px" height="50px" viewBox="0 0 50 50" style="enable-background:new 0 0 50 50;" xml:space="preserve">
<style type="text/css">
	.st0{fill:#FFFFFF;}
</style>
<g>
	<path class="st0" d="M18.1,19.9c1,3.9,4.9,5.3,9.8,6c-13.2-3.9-10-8.2,2.4-12.2S36.8-1.1,27,0.1c-5.1,0.7-11.8,4-7.1,8.9
		c-1.4-2.6-1.1-5,3.1-6.8C32.3-2,45,5.3,28.7,11.5C22.6,13.4,17.3,15.6,18.1,19.9z"/>
	<path class="st0" d="M29.7,14.9c-10.9,4.9-12,7.8-4.5,8.5C14.1,16.9,49.4,11,39,6.7C41,10,35.4,12.3,29.7,14.9z"/>
	<path class="st0" d="M42.8,29.2c-9.2-2.4-22.2-1.8-29.6-0.6c-1.7,0.2-1.9,0.5-1,1.6c0.2,0.5,0.1,1.3,0.1,2.1
		c-7.1,0.1-9.5,7.1-3.8,11c2.6,1.7,5.2,2,8.2,2.6c0.6,0.1,0.6,0.9,1.5,1.7c2.8,3,15.2,3.4,18.4,0c5.2-5.5,5.3-10.2,6.2-17
		C43.2,30,43.5,29.5,42.8,29.2z M7.4,39.4c-0.8-2.1-0.2-4.1,2.5-4.6c2.2-0.1,2.5,1.1,2.8,2.4c0.3,1.6,0.8,3.3,1.4,4.9
		C11.4,42.4,8.6,42.5,7.4,39.4z"/>
	<path class="st0" d="M27.9,9.4c0.1,0,0.3,0,0.4,0c3.3,0,6-1.6,6-3.5s-2.7-3.5-6-3.5s-6,1.5-6,3.5c0,0.1,0,0.2,0,0.3
		c0.2-1.5,2.4-2.7,5.1-2.7c2.8,0,5.1,1.3,5.1,3C32.6,8,30.6,9.3,27.9,9.4z"/>
	<path class="st0" d="M42.7,8.9c2,3.6-3.8,5-9.7,6.7c-11.4,3.2-12.5,5.8-4.7,7.8C16.7,15.1,53.5,14.8,42.7,8.9z"/>
</g>
</svg>
