<?xml version="1.0" encoding="utf-8"?>
<!-- Generator: Adobe Illustrator 23.0.2, SVG Export Plug-In . SVG Version: 6.00 Build 0)  -->
<svg version="1.1" id="レイヤー_1" xmlns="http://www.w3.org/2000/svg" xmlns:xlink="http://www.w3.org/1999/xlink" x="0px"
	 y="0px" width="278.41px" height="60px" viewBox="0 0 278.41 60" style="enable-background:new 0 0 278.41 60;"
	 xml:space="preserve">
<style type="text/css">
	.st0{fill:#372521;}
</style>
<g>
	<path class="st0" d="M13.49,20.99c1.07,4.09,5.19,5.61,10.28,6.29c-13.87-4.08-10.57-8.69,2.54-12.89
		c13.1-4.2,6.83-15.61-3.42-14.29c-5.41,0.75-12.41,4.24-7.43,9.44c-1.5-2.73-1.13-5.23,3.31-7.22c9.72-4.43,23.02,3.26,5.91,9.77
		C18.27,14.12,12.68,16.44,13.49,20.99z"/>
	<path class="st0" d="M25.67,15.71c-11.53,5.21-12.64,8.17-4.72,8.97C9.23,17.86,46.5,11.63,35.53,7.05
		C37.59,10.53,31.69,12.99,25.67,15.71z"/>
	<path class="st0" d="M39.48,30.82c-9.72-2.49-23.43-1.93-31.26-0.62c-1.77,0.2-1.95,0.51-1.01,1.67c0.2,0.5,0.11,1.34,0.12,2.21
		c-7.49,0.1-9.99,7.45-3.95,11.54c2.77,1.76,5.48,2.12,8.6,2.71c0.6,0.06,0.6,0.91,1.55,1.82c2.92,3.22,16,3.61,19.4,0
		c5.48-5.8,5.64-10.71,6.51-17.93C39.98,31.65,40.21,31.14,39.48,30.82z M2.25,41.5c-0.88-2.23-0.24-4.29,2.6-4.82
		c2.28-0.14,2.64,1.18,2.97,2.49c0.35,1.73,0.79,3.46,1.47,5.18C6.42,44.68,3.51,44.78,2.25,41.5z"/>
	<path class="st0" d="M23.85,9.88c0.15,0.01,0.31,0.01,0.46,0.01c3.46,0,6.27-1.64,6.27-3.66s-2.81-3.66-6.27-3.66
		c-3.47,0-6.27,1.64-6.27,3.66c0,0.09,0.01,0.18,0.02,0.27c0.22-1.62,2.54-2.89,5.37-2.89c2.98,0,5.39,1.41,5.39,3.14
		C28.81,8.4,26.63,9.76,23.85,9.88z"/>
	<path class="st0" d="M39.38,9.35c2.15,3.77-3.98,5.29-10.25,7.05c-11.98,3.37-13.14,6.13-4.91,8.17
		C12.03,15.96,50.79,15.6,39.38,9.35z"/>
	<path class="st0" d="M77.2,30.66c0,0.43,0.26,0.64,0.68,0.64c0.34,0,0.77-0.26,1.06-0.43c1.66-1.19,2-1.4,3.83-2.08
		c2.51-0.98,3.57-1.7,3.57-4.85c0-0.85-0.13-1.19-1.11-1.4c-1.79-0.38-3.57-0.6-5.36-0.6c-9.31,0-17.05,4.04-18.33,6.21
		c-0.72,1.15-1.36,4.25-1.36,5.66c0,2.55,2.21,3.23,4.34,3.57c2.04,0.34,13.82,2.04,13.82,4.21c0,0.68-4.17,5.06-19.35,4.51v-0.08
		c0.26-0.26,0.47-0.47,0.72-0.64c0.3-0.17,0.72-0.38,0.72-0.81c0-0.26-0.13-0.3-0.34-0.3c-0.64,0-3.15,0.81-3.66,1.23
		c-0.68,0.64-2.17,2.89-2.17,3.78c0,2.47,5.19,2.47,6.85,2.47c6.12,0,20.96-1.36,20.96-9.82c0-2.08-2-4.34-6.29-5.36
		c-11.86-2.76-11.35-3.06-11.31-3.66c0-0.98,4.76-4.93,15.73-5.32l0.09,0.08C78.01,29.26,77.2,30.57,77.2,30.66z"/>
	<path class="st0" d="M175.25,48.05c-1.36,0-2.72-0.55-2.64-2.17l0.08-0.94c8.16-2.68,10.25-5.83,10.25-7.91
		c0-1.7-1.7-2.04-3.06-2.04c-4.68-0.04-9.81,4.05-11.17,8.68c-1.74,1.55-4.88,4.12-7.16,4.12c-1.15,0-1.74-0.85-2.13-1.83
		c-0.21-1.02-0.08-2.21,0.3-2.93c9.23-8.93,10.33-12.67,10.63-16.71c0.04-0.55-0.13-1.57-0.85-1.57c-1.36,0-5.27,4.08-9.14,8.59
		c-2.05,2.79-3.76,6.29-4.4,9.84c-4.53,3.9-5.39,4.58-9.04,4.32c4.76-4.21,6.89-7.14,6.89-9.48c0-1.11-0.64-2-1.79-2
		c-2.3,0-6.59,2.81-8.42,4.12l-0.09-0.08c0.85-1.91,2.17-3.49,3.61-5.02c0.68-0.72,2.89-2.76,2.89-3.7c0-0.81-1.36-1.02-1.96-1.02
		c-1.62,0-2.47,1.15-3.4,2.34l-10.85,11.67c-3.67,2.44-4.13,2.47-4.92,2.66c-0.51,0.13-1.02-0.55-1.02-1.06
		c0.08-0.98,0.3-1.66,3.61-5.32c0.47-0.51,1.32-1.45,1.32-2.17c0-0.59-0.47-1.23-0.77-1.7c-0.13-0.17-0.55-1.19-0.89-1.19
		c-0.51,0-1.57,0.89-2,1.19l-9.44,7.44l-0.08-0.09c0.94-1.66,3.95-5.1,3.95-6.97c0-1.11-0.6-1.96-1.74-1.96
		c-2.76,0-10.33,7.57-12.42,9.74c-0.13,0.13-0.64,0.68-0.85,0.68c-0.17,0-0.3-0.3-0.3-0.38c0-0.89,0.77-1.57,1.23-2.21
		c0.64-0.94,1.57-1.7,2.34-2.59c0.51-0.59,1.7-1.87,1.7-2.72c0-0.89-1.28-0.89-1.91-0.98c-2.12-0.28-5.57,3.59-6.71,7.3
		c-1.82,1.24-4.23,3.37-6,3.37c-0.68,0-1.32-0.3-1.32-1.02c0-2,3.7-4.98,3.7-6.34c0-0.94-0.43-1.4-1.23-1.74
		c0.38-0.13,1.49-0.55,1.49-1.06c0-0.51-0.81-2.08-2.76-2.04c-4.93,0.13-15.99,5.57-15.82,10.89c0.08,2.21,2.55,5.02,3.74,5.02
		c0.98,0,3.7-2.21,4.51-2.85l3.91-3.15l0.09,0.09c-0.55,1.15-1.57,3.4-1.57,4.76c0,1.23,0.64,2.25,2.04,2.25
		c1.85,0,6.54-3.58,8.85-5.84c0.03,1.57,0.63,4.74,2.63,4.74c0.77,0,1.36-0.64,1.83-1.19c2-2.47,4.38-5.02,6.59-7.36
		c0.3-0.3,1.23-1.32,1.66-1.32c0.17,0,0.3,0.13,0.3,0.3c0,0.13-0.17,0.47-0.26,0.55c-2.76,4.21-3.78,6.17-3.74,7.4
		c0.04,1.02,0.85,1.79,1.87,1.79c1.45,0,3.02-1.7,3.95-2.68l6.76-6.21l0.08,0.09c-1.06,1.74-3.15,4.76-3.15,6.89
		c0,1.23,0.89,2.47,2.17,2.47c2.38,0,8.5-5.02,10.5-6.59l-0.06-0.45l4.61-4.4l0.08,0.08c-2.76,4.68-4.89,8.16-6.85,10.93
		c-1.74,2.47-2.68,4.59-2.64,6.72c0,0.77,0.26,1.91,1.23,1.91c0.81,0,1.57-1.15,1.91-1.79l4-7.82c0.55,0.13,1.11,0.25,1.7,0.25
		c0.68,0,1.32-0.13,1.96-0.25c1.02,0.51,1.87,0.85,3.02,0.85c4.32,0,7.95-2.71,10.99-5.58c0,0.12-0.02,0.23-0.02,0.35
		c0,2.51,0.68,5.53,3.79,5.53c3.14,0,6.52-3.16,8.9-5.59c0,0.09-0.01,0.18-0.01,0.27c0.08,2.81,1.53,5.57,4.64,5.57
		c4.21,0,8.89-4,11.48-7.02l-0.38-1.62C181.84,44.95,178.27,48.05,175.25,48.05z M178.7,37.46c0.3-0.08,0.51,0.17,0.51,0.47
		c0.04,0.72-2.51,3.66-6.25,4.93C174.1,40.06,176.57,38.02,178.7,37.46z M167.13,29.81c-0.77,2.42-3.4,6.51-6.42,9.31l-0.08-0.08
		C162.2,35.63,164.11,32.19,167.13,29.81z M86.94,47.97c-0.64,0.13-0.81-0.64-0.85-0.85c0-2.08,1.23-4.68,11.35-7.78l0.09,0.08
		C89.1,47.92,87.79,47.8,86.94,47.97z M144.51,46.73c-1.15-0.38-2.34-0.51-3.57-0.43c1.15-1.53,2.34-2.98,3.91-4.12
		c0.55-0.38,2.59-1.7,3.27-1.7c0.34,0,0.47,0.3,0.47,0.6c0,0.77-0.6,1.49-1.06,2.08L144.51,46.73z"/>
	<path class="st0" d="M227.6,36.99c-4.04,3.57-13.39,10.55-18.75,10.55c-3.06,0-4.51-1.79-4.51-4.81c0-3.23,2.17-7.95,5.15-11.44
		c9.52-11.14,14.37-11.31,15.14-11.52c0.68-0.17,1.15,0.13,1.15,0.85c0,1.4-2.68,5.23-6.8,8.8l-0.09-0.09
		c0.21-0.68,0-0.98-0.43-0.98c-0.47,0-1.87,1.36-2.17,1.66l-3.15,2.76c-0.85,0.81-2.04,2.04-2.04,3.32c0,1.36,1.15,2.21,2.38,2.04
		c5.36-0.81,16.33-11.69,16.03-17.43c-0.13-2.68-1.79-4.04-4.34-4.04c-5.06,0-13.99,6.8-17.61,10.25
		c-4.38,4.12-9.61,10.84-9.61,17.09c0,4.89,3.4,7.82,8.12,7.82c4,0,11.06-2.55,19.35-10.55C227.04,39.75,227.72,39.16,227.6,36.99z"
		/>
	<path class="st0" d="M278.03,38.3c-2.25,1.79-5.83,4.89-8.84,4.89c-1.36,0-2.72-0.55-2.64-2.17l0.08-0.94
		c8.16-2.68,10.25-5.83,10.25-7.91c0-1.7-1.7-2.04-3.06-2.04c-4.64-0.04-9.72,3.98-11.13,8.57l-0.01-0.02l-5.74,3.57
		c-0.55-1.23-0.98-2.64-2.21-3.36l7.95-11.1c0.89-1.36,2.21-4.3,2.21-5.95c0-0.68-0.08-1.87-1.02-1.87c-2.17,0-7.65,10.12-8.76,12.2
		c-1.32,2.42-2.68,4.42-5.19,5.78c-1.13,0.63-2.18,1.08-2.35,2.47c-1.43,1.05-2.97,2.08-4.2,2.08c-0.68,0-1.32-0.3-1.32-1.02
		c0-2,3.7-4.98,3.7-6.34c0-0.94-0.43-1.4-1.23-1.74c0.38-0.13,1.49-0.55,1.49-1.06c0-0.51-0.81-2.08-2.76-2.04
		c-4.93,0.13-15.99,5.57-15.82,10.89c0.08,2.21,2.55,5.02,3.74,5.02c0.98,0,3.7-2.21,4.51-2.85l3.91-3.15l0.09,0.09
		c-0.55,1.15-1.57,3.4-1.57,4.76c0,1.23,0.64,2.25,2.04,2.25c1.62,0,5.43-2.76,7.9-4.96c0.21,0.3,0.45,0.59,0.73,0.88
		c-1.15,2.42-2.98,5.78-2.98,8.55c0,1.4,0.55,5.36,2.51,5.06c3.1-0.47,9.1-5.15,9.4-10.21c0.08-0.76,0.13-1.53-0.04-2.34
		c1.74-0.85,3.22-2.04,4.65-3.3c0,0.12-0.02,0.24-0.01,0.37c0.08,2.81,1.53,5.57,4.64,5.57c4.21,0,8.89-4,11.48-7.02L278.03,38.3z
		 M272.62,32.61c0.3-0.08,0.51,0.17,0.51,0.47c0.04,0.72-2.51,3.66-6.25,4.93C268.03,35.2,270.5,33.16,272.62,32.61z M231.38,43.11
		c-0.64,0.13-0.81-0.64-0.85-0.85c0-2.08,1.23-4.68,11.35-7.78l0.09,0.08C233.55,43.07,232.23,42.94,231.38,43.11z M250.39,53.36
		c-0.64-1.23-1.02-2.42-0.85-3.78c0.17-1.4,0.85-2.93,1.96-4.81c1.79,0.51,0.98,0.34,3.06,0.34
		C254.94,48.3,253.02,51.61,250.39,53.36z"/>
</g>
</svg>
